<?xml version="1.0" encoding="UTF-8"?>
<svg width="1000px" height="938px" viewBox="0 0 1000 938" version="1.1" xmlns="http://www.w3.org/2000/svg" xmlns:xlink="http://www.w3.org/1999/xlink">
    <!-- Generator: Sketch 61 (89581) - https://sketch.com -->
    <title>Icon colour svg</title>
    <desc>Created with Sketch.</desc>
    <defs>
        <linearGradient x1="50.0015241%" y1="-0.420076942%" x2="50.0015241%" y2="91.3378479%" id="linearGradient-1">
            <stop stop-color="#7AC6B6" offset="0%"></stop>
            <stop stop-color="#008697" offset="100%"></stop>
        </linearGradient>
        <linearGradient x1="50.0192418%" y1="-0.411040875%" x2="50.0192418%" y2="91.3386273%" id="linearGradient-2">
            <stop stop-color="#F9B104" offset="0%"></stop>
            <stop stop-color="#E73339" offset="100%"></stop>
        </linearGradient>
        <linearGradient x1="17.9847689%" y1="37.2801836%" x2="145.613445%" y2="115.769293%" id="linearGradient-3">
            <stop stop-color="#00132D" stop-opacity="0" offset="0%"></stop>
            <stop stop-color="#00132D" offset="99.95%"></stop>
        </linearGradient>
        <linearGradient x1="61.3792309%" y1="73.9331931%" x2="18.3019668%" y2="-28.4392425%" id="linearGradient-4">
            <stop stop-color="#00132D" stop-opacity="0" offset="0%"></stop>
            <stop stop-color="#00132D" offset="100%"></stop>
        </linearGradient>
        <linearGradient x1="81.980042%" y1="37.2801836%" x2="-45.6491597%" y2="115.769293%" id="linearGradient-5">
            <stop stop-color="#00132D" stop-opacity="0" offset="0%"></stop>
            <stop stop-color="#00132D" offset="99.95%"></stop>
        </linearGradient>
        <linearGradient x1="38.6329712%" y1="73.9331931%" x2="81.7106166%" y2="-28.4392425%" id="linearGradient-6">
            <stop stop-color="#00132D" stop-opacity="0" offset="0%"></stop>
            <stop stop-color="#00132D" offset="100%"></stop>
        </linearGradient>
    </defs>
    <g id="Icon-colour-svg" stroke="none" stroke-width="1" fill="none" fill-rule="evenodd" transform="translate(0.000000, 0.000000)">
        <g id="WoodWing_logo_cmyk_kleur" transform="translate(231.053140, 201.067633)" fill-rule="nonzero">
            <g id="Group">
                <path d="M438.125604,537.193237 C434.26087,537.193237 430.347826,536.178744 426.917874,534.198068 L344.019324,486.323671 C306.144928,464.487923 283.584541,425.309179 283.584541,381.637681 C283.584541,346.082126 298.560386,313.521739 324.502415,290.864734 C298.512077,268.207729 283.584541,235.647343 283.584541,200.091787 C283.584541,156.371981 306.193237,117.241546 344.019324,95.4057971 L503.439614,3.37681159 C510.347826,-0.632850242 518.995169,-0.632850242 525.903382,3.37681159 C532.859903,7.38647343 537.15942,14.826087 537.15942,22.8454106 L537.15942,150.333333 C537.15942,180.768116 520.782609,209.173913 494.405797,224.391304 L379.236715,290.864734 L417.835749,313.183575 C444.21256,328.400966 460.589372,356.806763 460.589372,387.289855 L460.589372,514.777778 C460.589372,522.797101 456.289855,530.236715 449.381643,534.246377 C445.903382,536.178744 442.038647,537.193237 438.125604,537.193237 Z M350.154589,308.304348 C326.869565,325.405797 313.246377,352.169082 313.246377,381.637681 C313.246377,414.63285 330.299517,444.149758 358.850242,460.671498 L430.975845,502.31401 L430.975845,387.289855 C430.975845,367.386473 420.251208,348.835749 403.05314,338.884058 L350.154589,308.304348 Z M507.497585,35.2125604 L358.850242,121.057971 C330.299517,137.531401 313.246377,167.096618 313.246377,200.091787 C313.246377,229.560386 326.869565,256.275362 350.154589,273.425121 L479.574879,198.690821 C496.821256,188.73913 507.497585,170.188406 507.497585,150.285024 L507.497585,35.2125604 Z" id="Shape" fill="url(#linearGradient-1)"></path>
                <path d="M99.7681159,537.193237 C95.9033816,537.193237 91.9903382,536.178744 88.5120773,534.198068 C81.6038647,530.188406 77.2560386,522.748792 77.2560386,514.729469 L77.2560386,387.241546 C77.2560386,356.758454 93.6328502,328.400966 120.009662,313.135266 L158.608696,290.816425 L43.4396135,224.342995 C17.0628019,209.125604 0.685990338,180.719807 0.685990338,150.285024 L0.685990338,22.7971014 C0.685990338,14.7777778 4.98550725,7.33816425 11.942029,3.32850242 C18.8502415,-0.68115942 27.4975845,-0.68115942 34.4057971,3.32850242 L193.826087,95.3574879 C231.700483,117.193237 254.26087,156.371981 254.26087,200.043478 C254.26087,235.599034 239.285024,268.15942 213.342995,290.816425 C239.333333,313.47343 254.26087,346.033816 254.26087,381.589372 C254.26087,425.309179 231.652174,464.439614 193.826087,486.275362 L110.927536,534.149758 C107.497585,536.178744 103.63285,537.193237 99.7681159,537.193237 Z M187.73913,308.304348 L134.84058,338.835749 C117.594203,348.78744 106.917874,367.338164 106.917874,387.241546 L106.917874,502.2657 L179.043478,460.623188 C207.594203,444.149758 224.647343,414.584541 224.647343,381.589372 C224.647343,352.169082 211.024155,325.405797 187.73913,308.304348 Z M30.3961353,35.2125604 L30.3961353,150.236715 C30.3961353,170.140097 41.1207729,188.690821 58.3188406,198.642512 L187.73913,273.376812 C211.024155,256.275362 224.647343,229.512077 224.647343,200.043478 C224.647343,167.048309 207.594203,137.531401 179.043478,121.009662 L30.3961353,35.2125604 Z" id="Shape" fill="url(#linearGradient-2)"></path>
                <g opacity="0.35" transform="translate(95.618357, 220.222222)" id="Path">
                    <path d="M83.4251208,58.8550725 C86.468599,57.115942 89.3188406,55.1835749 92.0724638,53.1545894 L0.0917874396,0.0628019324 L0.0917874396,34.3140097 L63.0386473,70.6425121 L83.4251208,58.8550725 Z" fill="url(#linearGradient-3)"></path>
                    <path d="M129.028986,161.415459 C129.028986,161.801932 128.980676,162.140097 128.980676,162.478261 L158.642512,162.478261 C158.642512,162.091787 158.690821,161.753623 158.690821,161.415459 C158.690821,125.811594 143.714976,93.2995169 117.724638,70.6425121 C111.782609,75.8115942 105.309179,80.4975845 98.2560386,84.6038647 L92.1207729,88.1304348 C115.405797,105.231884 129.028986,131.898551 129.028986,161.415459 Z" fill="url(#linearGradient-4)"></path>
                </g>
                <g opacity="0.5" transform="translate(283.024155, 220.222222)" id="Path">
                    <path d="M75.826087,58.8550725 C72.7826087,57.115942 69.9323671,55.1835749 67.178744,53.1545894 L159.15942,0.0628019324 L159.15942,34.3140097 L96.2125604,70.6425121 L75.826087,58.8550725 Z" fill="url(#linearGradient-5)"></path>
                    <path d="M30.173913,161.415459 C30.173913,161.801932 30.2222222,162.140097 30.2222222,162.478261 L0.560386473,162.478261 C0.560386473,162.091787 0.512077295,161.753623 0.512077295,161.415459 C0.512077295,125.811594 15.4879227,93.2995169 41.4782609,70.6425121 C47.4202899,75.8115942 53.8937198,80.4975845 60.9468599,84.6038647 L67.0821256,88.1304348 C43.8454106,105.231884 30.173913,131.898551 30.173913,161.415459 Z" fill="url(#linearGradient-6)"></path>
                </g>
            </g>
        </g>
    </g>
</svg>