<?xml version="1.0" encoding="utf-8"?>
<svg version="1.1" id="Layer_1" xmlns="http://www.w3.org/2000/svg" x="0px" y="0px"
	 viewBox="0 0 13.4 18" enable-background="new 0 0 13.4 18" xml:space="preserve">
<style type="text/css">
	.st0{fill:#808181;}
</style>
<g>
	<path class="st0" d="M10.7,7.7h-8c-1.4,0-2.5,1.1-2.5,2.5v5c0,1.4,1.1,2.5,2.5,2.5h8c1.4,0,2.5-1.1,2.5-2.5v-5
		C13.2,8.9,12.1,7.7,10.7,7.7z M7.2,13.7c0,0.3-0.2,0.5-0.5,0.5S6.2,14,6.2,13.7v-2c0-0.3,0.2-0.5,0.5-0.5s0.5,0.2,0.5,0.5V13.7z"
	/>
	<path class="st0" d="M11,7.8H9.3V4.6C9.3,3.1,8.2,2,6.7,2C5.2,2,4.1,3.1,4.1,4.6v3.2H2.4V4.6c0-2.4,1.9-4.3,4.3-4.3
		c2.4,0,4.4,1.9,4.4,4.3V7.8z"/>
</g>
</svg>
