<?xml version="1.0" encoding="utf-8"?>
<svg version="1.1" id="Layer_1" xmlns="http://www.w3.org/2000/svg" x="0px" y="0px"
	 viewBox="0 0 15 15.5" style="enable-background:new 0 0 15 15.5;" xml:space="preserve">
<style type="text/css">
	.st0{fill:#FFFFFF;}
</style>
	<g>
	<path class="st0" d="M8.8,1c0,1.4,1.1,2.6,2.6,2.6c0.5,0,0.9-0.1,1.3-0.3L14,5.5c-1.2,0.7-1.7,2.3-0.9,3.5c0.2,0.4,0.6,0.7,0.9,0.9
		l-1.3,2.3c-0.4-0.2-0.8-0.3-1.3-0.3c-0.9,0-1.7,0.5-2.2,1.3c-0.2,0.4-0.3,0.8-0.3,1.3H6.2c0-1.4-1.2-2.6-2.6-2.6
		c-0.5,0-0.9,0.1-1.3,0.3L1,10c1.2-0.7,1.6-2.3,0.9-3.5C1.7,6.1,1.4,5.7,1,5.5l1.3-2.3c0.4,0.2,0.9,0.3,1.3,0.3
		c0.9,0,1.7-0.5,2.2-1.3C6.1,1.9,6.2,1.4,6.2,1L8.8,1 M7.5,10.5c1.5,0,2.7-1.2,2.7-2.7C10.2,6.2,9,5,7.5,5C6,5,4.8,6.2,4.8,7.7
		C4.8,9.2,6,10.5,7.5,10.5 M8.8,0L8.8,0L6.2,0C5.9,0,5.7,0.1,5.5,0.3C5.3,0.5,5.2,0.7,5.2,1c0,0.3-0.1,0.5-0.2,0.8
		C4.7,2.3,4.2,2.6,3.6,2.6c-0.3,0-0.5-0.1-0.8-0.2C2.7,2.3,2.5,2.2,2.3,2.2C2,2.2,1.6,2.4,1.5,2.7L0.1,5C0,5.2,0,5.5,0,5.8
		C0.1,6,0.3,6.3,0.5,6.4C0.7,6.5,0.9,6.7,1.1,7c0.4,0.7,0.2,1.7-0.6,2.1C0,9.4-0.1,10,0.1,10.5l1.3,2.3c0.1,0.2,0.4,0.4,0.6,0.5
		c0.1,0,0.2,0,0.3,0c0.2,0,0.3,0,0.5-0.1c0.2-0.1,0.5-0.2,0.8-0.2c0.9,0,1.6,0.7,1.6,1.6c0,0.6,0.4,1,1,1h2.6c0.3,0,0.5-0.1,0.7-0.3
		c0.2-0.2,0.3-0.4,0.3-0.7c0-0.3,0.1-0.5,0.2-0.8c0.3-0.5,0.8-0.8,1.4-0.8c0.3,0,0.5,0.1,0.8,0.2c0.2,0.1,0.3,0.1,0.5,0.1
		c0.3,0,0.7-0.2,0.9-0.5l1.3-2.3C15,10.2,15,10,15,9.7c-0.1-0.3-0.2-0.5-0.5-0.6c-0.2-0.1-0.4-0.3-0.6-0.6c-0.4-0.7-0.2-1.7,0.6-2.1
		C15,6.1,15.1,5.5,14.9,5l-1.3-2.3c-0.1-0.2-0.4-0.4-0.6-0.5c-0.1,0-0.2,0-0.3,0c-0.2,0-0.4,0-0.5,0.1c-0.2,0.1-0.5,0.2-0.8,0.2
		c-0.9,0-1.6-0.7-1.6-1.6c0-0.3-0.1-0.5-0.3-0.7C9.3,0.1,9.1,0,8.8,0L8.8,0z M7.5,9.5c-1,0-1.7-0.8-1.7-1.7c0-1,0.8-1.7,1.7-1.7
		s1.7,0.8,1.7,1.7C9.2,8.7,8.5,9.5,7.5,9.5L7.5,9.5z"/>
</g>
</svg>
